<svg xmlns="http://www.w3.org/2000/svg" width="1500" height="620" viewBox="0 0 1500 620"><defs><linearGradient id="sky" x1="0" y1="0" x2="0" y2="1"><stop stop-color="#91d9ef"/><stop offset="1" stop-color="#e5f4d8"/></linearGradient><linearGradient id="water" x1="0" y1="0" x2="1" y2="0"><stop stop-color="#43a9c8"/><stop offset=".5" stop-color="#9defff"/><stop offset="1" stop-color="#327fa4"/></linearGradient></defs><rect width="1500" height="620" fill="url(#sky)"/><path d="M0 335 175 190 320 320 505 165 690 325 900 180 1090 330 1260 205 1500 325V460H0Z" fill="#789882"/><path d="M0 420c230-90 460-40 650 10s430 25 850-15v205H0Z" fill="#5a8747"/><path d="M0 510c270-50 430-5 660 20 260 25 480-35 840-15v105H0Z" fill="#3f6f39"/><path d="M470 620c-10-80 20-145 120-160 140-20 215 90 330 72 125-18 175-100 325-80 100 13 170 73 190 168Z" fill="url(#water)"/><g fill="#70766f" stroke="#4e544e" stroke-width="6"><ellipse cx="570" cy="525" rx="62" ry="28"/><ellipse cx="700" cy="548" rx="58" ry="24"/><ellipse cx="840" cy="525" rx="60" ry="27"/><ellipse cx="980" cy="545" rx="58" ry="25"/></g><g fill="#2c6540"><path d="M90 455 150 260 210 455Z"/><path d="M180 455 245 230 310 455Z"/><path d="M1240 455 1305 230 1370 455Z"/><path d="M1340 455 1400 275 1460 455Z"/></g><g transform="translate(300 430)"><path d="M0 80q70-80 160 0" fill="#4f3828"/><ellipse cx="80" cy="82" rx="72" ry="32" fill="#1b120d"/><text x="80" y="92" text-anchor="middle" font-family="Verdana" font-size="18" font-weight="700" fill="#ffd77c">BURROW</text></g><g fill="#fff2bb"><circle cx="1120" cy="470" r="6"/><circle cx="1142" cy="458" r="5"/><circle cx="1160" cy="475" r="4"/></g></svg>